<svg xmlns="http://www.w3.org/2000/svg" xmlns:xlink="http://www.w3.org/1999/xlink" width="500" zoomAndPan="magnify" viewBox="0 0 375 374.999991" height="500" preserveAspectRatio="xMidYMid meet" version="1.0"><defs><g/><clipPath id="16c1e06278"><path d="M 18.667969 147 L 110 147 L 110 201.628906 L 18.667969 201.628906 Z M 18.667969 147 " clip-rule="nonzero"/></clipPath></defs><rect x="-37.5" width="450" fill="#ffffff" y="-37.499999" height="449.999989" fill-opacity="1"/><rect x="-37.5" width="450" fill="#000000" y="-37.499999" height="449.999989" fill-opacity="1"/><g clip-path="url(#16c1e06278)"><path fill="#ffffff" d="M 79.957031 152.472656 C 81.042969 151.265625 82.25 150.273438 83.484375 149.488281 C 85.65625 148.128906 87.949219 147.40625 90.300781 147.40625 L 90.300781 167.097656 C 88.582031 161.128906 84.871094 156 79.957031 152.472656 Z M 109.238281 201.839844 L 39.488281 201.839844 C 28.027344 201.839844 18.769531 192.550781 18.769531 181.121094 C 18.769531 170.175781 27.273438 161.1875 38.039062 160.433594 L 38.039062 147.40625 C 40.453125 147.40625 42.835938 148.101562 45.066406 149.488281 C 46.304688 150.242188 47.507812 151.238281 48.59375 152.382812 C 53.027344 149.277344 58.394531 147.46875 64.214844 147.46875 C 64.214844 160.042969 59.691406 174.667969 44.976562 174.699219 L 64.066406 174.699219 C 63.523438 172.253906 61.289062 170.445312 58.636719 170.417969 L 69.734375 170.417969 C 67.082031 170.417969 64.847656 172.253906 64.304688 174.730469 L 82.097656 174.730469 C 85.65625 174.730469 89.183594 175.421875 92.503906 176.808594 C 95.789062 178.167969 98.804688 180.1875 101.308594 182.691406 C 103.839844 185.222656 105.832031 188.207031 107.1875 191.496094 C 108.546875 194.753906 109.238281 198.28125 109.238281 201.839844 Z M 49.769531 160.796875 C 50.222656 161.972656 51.429688 163.300781 53.117188 164.265625 C 54.808594 165.230469 56.554688 165.621094 57.792969 165.441406 C 57.339844 164.265625 56.132812 162.9375 54.445312 161.972656 C 52.757812 161.007812 51.007812 160.617188 49.769531 160.796875 Z M 75.164062 164.265625 C 73.472656 165.230469 71.722656 165.621094 70.488281 165.441406 C 70.941406 164.265625 72.148438 162.9375 73.835938 161.972656 C 75.523438 161.007812 77.273438 160.617188 78.511719 160.796875 C 78.085938 161.972656 76.851562 163.300781 75.164062 164.265625 Z M 75.164062 164.265625 " fill-opacity="1" fill-rule="nonzero"/></g><g fill="#ffffff" fill-opacity="1"><g transform="translate(107.607741, 200.553897)"><g><path d="M 2.703125 -37.09375 L 16.234375 -37.09375 C 20.003906 -37.09375 23.054688 -36.117188 25.390625 -34.171875 C 27.734375 -32.222656 28.90625 -29.390625 28.90625 -25.671875 C 28.90625 -21.953125 27.71875 -19.035156 25.34375 -16.921875 C 22.976562 -14.804688 19.941406 -13.75 16.234375 -13.75 L 11.140625 -13.75 L 11.140625 0 L 2.703125 0 Z M 11.140625 -20.5 L 13.53125 -20.5 C 15.414062 -20.5 16.960938 -20.878906 18.171875 -21.640625 C 19.390625 -22.410156 20 -23.664062 20 -25.40625 C 20 -27.164062 19.390625 -28.425781 18.171875 -29.1875 C 16.960938 -29.957031 15.414062 -30.34375 13.53125 -30.34375 L 11.140625 -30.34375 Z M 11.140625 -20.5 "/></g></g></g><g fill="#ffffff" fill-opacity="1"><g transform="translate(137.542766, 200.553897)"><g><path d="M 2.703125 0 L 2.703125 -23.0625 L 10.65625 -23.0625 L 10.65625 -19.734375 L 10.75 -19.734375 C 10.800781 -19.859375 10.894531 -20.007812 11.03125 -20.1875 C 11.164062 -20.363281 11.457031 -20.675781 11.90625 -21.125 C 12.363281 -21.570312 12.84375 -21.972656 13.34375 -22.328125 C 13.851562 -22.691406 14.515625 -23.015625 15.328125 -23.296875 C 16.140625 -23.585938 16.960938 -23.734375 17.796875 -23.734375 C 18.671875 -23.734375 19.523438 -23.613281 20.359375 -23.375 C 21.203125 -23.132812 21.816406 -22.894531 22.203125 -22.65625 L 22.84375 -22.296875 L 19.515625 -15.546875 C 18.523438 -16.390625 17.144531 -16.8125 15.375 -16.8125 C 14.414062 -16.8125 13.59375 -16.597656 12.90625 -16.171875 C 12.21875 -15.753906 11.726562 -15.242188 11.4375 -14.640625 C 11.15625 -14.046875 10.953125 -13.539062 10.828125 -13.125 C 10.710938 -12.707031 10.65625 -12.378906 10.65625 -12.140625 L 10.65625 0 Z M 2.703125 0 "/></g></g></g><g fill="#ffffff" fill-opacity="1"><g transform="translate(159.926606, 200.553897)"><g><path d="M 26.03125 -10.421875 L 9.3125 -10.421875 C 9.3125 -8.804688 9.832031 -7.609375 10.875 -6.828125 C 11.925781 -6.054688 13.066406 -5.671875 14.296875 -5.671875 C 15.585938 -5.671875 16.601562 -5.84375 17.34375 -6.1875 C 18.09375 -6.53125 18.953125 -7.207031 19.921875 -8.21875 L 25.671875 -5.34375 C 23.273438 -1.332031 19.285156 0.671875 13.703125 0.671875 C 10.234375 0.671875 7.253906 -0.515625 4.765625 -2.890625 C 2.273438 -5.273438 1.03125 -8.144531 1.03125 -11.5 C 1.03125 -14.863281 2.273438 -17.742188 4.765625 -20.140625 C 7.253906 -22.535156 10.234375 -23.734375 13.703125 -23.734375 C 17.359375 -23.734375 20.332031 -22.675781 22.625 -20.5625 C 24.925781 -18.445312 26.078125 -15.429688 26.078125 -11.515625 C 26.078125 -10.972656 26.0625 -10.609375 26.03125 -10.421875 Z M 9.53125 -14.828125 L 18.296875 -14.828125 C 18.117188 -16.023438 17.644531 -16.945312 16.875 -17.59375 C 16.113281 -18.238281 15.132812 -18.5625 13.9375 -18.5625 C 12.613281 -18.5625 11.5625 -18.21875 10.78125 -17.53125 C 10.007812 -16.84375 9.59375 -15.941406 9.53125 -14.828125 Z M 9.53125 -14.828125 "/></g></g></g><g fill="#ffffff" fill-opacity="1"><g transform="translate(187.029928, 200.553897)"><g><path d="M 26.4375 -20.203125 C 28.59375 -17.847656 29.671875 -14.960938 29.671875 -11.546875 C 29.671875 -8.128906 28.59375 -5.238281 26.4375 -2.875 C 24.28125 -0.507812 21.535156 0.671875 18.203125 0.671875 C 15.148438 0.671875 12.632812 -0.285156 10.65625 -2.203125 L 10.65625 11.6875 L 2.703125 11.6875 L 2.703125 -23.0625 L 10.5625 -23.0625 L 10.5625 -20.453125 L 10.65625 -20.453125 C 12.632812 -22.640625 15.148438 -23.734375 18.203125 -23.734375 C 21.535156 -23.734375 24.28125 -22.554688 26.4375 -20.203125 Z M 19.65625 -7.640625 C 20.695312 -8.660156 21.21875 -9.960938 21.21875 -11.546875 C 21.21875 -13.140625 20.722656 -14.4375 19.734375 -15.4375 C 18.742188 -16.445312 17.441406 -16.953125 15.828125 -16.953125 C 14.265625 -16.953125 12.976562 -16.441406 11.96875 -15.421875 C 10.96875 -14.398438 10.46875 -13.109375 10.46875 -11.546875 C 10.46875 -9.960938 10.984375 -8.660156 12.015625 -7.640625 C 13.054688 -6.617188 14.328125 -6.109375 15.828125 -6.109375 C 17.347656 -6.109375 18.625 -6.617188 19.65625 -7.640625 Z M 19.65625 -7.640625 "/></g></g></g><g fill="#ffffff" fill-opacity="1"><g transform="translate(217.729055, 200.553897)"><g><path d="M 36.234375 -20.765625 L 36.234375 -12.71875 C 35.273438 -8.3125 33.175781 -4.976562 29.9375 -2.71875 C 26.695312 -0.457031 23.085938 0.671875 19.109375 0.671875 C 14.097656 0.671875 9.832031 -1.195312 6.3125 -4.9375 C 2.789062 -8.6875 1.03125 -13.210938 1.03125 -18.515625 C 1.03125 -23.910156 2.753906 -28.46875 6.203125 -32.1875 C 9.648438 -35.90625 13.953125 -37.765625 19.109375 -37.765625 C 25.128906 -37.765625 29.894531 -35.648438 33.40625 -31.421875 L 27.875 -25.359375 C 25.894531 -28.535156 23.132812 -30.125 19.59375 -30.125 C 16.988281 -30.125 14.765625 -28.988281 12.921875 -26.71875 C 11.078125 -24.457031 10.15625 -21.722656 10.15625 -18.515625 C 10.15625 -15.367188 11.078125 -12.679688 12.921875 -10.453125 C 14.765625 -8.222656 16.988281 -7.109375 19.59375 -7.109375 C 21.757812 -7.109375 23.640625 -7.757812 25.234375 -9.0625 C 26.835938 -10.363281 27.640625 -12.09375 27.640625 -14.25 L 19.109375 -14.25 L 19.109375 -20.765625 Z M 36.234375 -20.765625 "/></g></g></g><g fill="#ffffff" fill-opacity="1"><g transform="translate(254.990511, 200.553897)"><g><path d="M 26.03125 -10.421875 L 9.3125 -10.421875 C 9.3125 -8.804688 9.832031 -7.609375 10.875 -6.828125 C 11.925781 -6.054688 13.066406 -5.671875 14.296875 -5.671875 C 15.585938 -5.671875 16.601562 -5.84375 17.34375 -6.1875 C 18.09375 -6.53125 18.953125 -7.207031 19.921875 -8.21875 L 25.671875 -5.34375 C 23.273438 -1.332031 19.285156 0.671875 13.703125 0.671875 C 10.234375 0.671875 7.253906 -0.515625 4.765625 -2.890625 C 2.273438 -5.273438 1.03125 -8.144531 1.03125 -11.5 C 1.03125 -14.863281 2.273438 -17.742188 4.765625 -20.140625 C 7.253906 -22.535156 10.234375 -23.734375 13.703125 -23.734375 C 17.359375 -23.734375 20.332031 -22.675781 22.625 -20.5625 C 24.925781 -18.445312 26.078125 -15.429688 26.078125 -11.515625 C 26.078125 -10.972656 26.0625 -10.609375 26.03125 -10.421875 Z M 9.53125 -14.828125 L 18.296875 -14.828125 C 18.117188 -16.023438 17.644531 -16.945312 16.875 -17.59375 C 16.113281 -18.238281 15.132812 -18.5625 13.9375 -18.5625 C 12.613281 -18.5625 11.5625 -18.21875 10.78125 -17.53125 C 10.007812 -16.84375 9.59375 -15.941406 9.53125 -14.828125 Z M 9.53125 -14.828125 "/></g></g></g><g fill="#ffffff" fill-opacity="1"><g transform="translate(282.093833, 200.553897)"><g><path d="M 2.703125 0 L 2.703125 -23.0625 L 10.65625 -23.0625 L 10.65625 -20.640625 L 10.75 -20.640625 C 12.8125 -22.703125 15.015625 -23.734375 17.359375 -23.734375 C 18.492188 -23.734375 19.625 -23.582031 20.75 -23.28125 C 21.875 -22.988281 22.953125 -22.523438 23.984375 -21.890625 C 25.015625 -21.265625 25.851562 -20.375 26.5 -19.21875 C 27.144531 -18.0625 27.46875 -16.71875 27.46875 -15.1875 L 27.46875 0 L 19.515625 0 L 19.515625 -13.03125 C 19.515625 -14.226562 19.128906 -15.273438 18.359375 -16.171875 C 17.597656 -17.078125 16.601562 -17.53125 15.375 -17.53125 C 14.175781 -17.53125 13.085938 -17.066406 12.109375 -16.140625 C 11.140625 -15.210938 10.65625 -14.175781 10.65625 -13.03125 L 10.65625 0 Z M 2.703125 0 "/></g></g></g><g fill="#ffffff" fill-opacity="1"><g transform="translate(311.804115, 200.553897)"><g><path d="M 3.453125 -35.921875 C 4.390625 -36.847656 5.5 -37.3125 6.78125 -37.3125 C 8.070312 -37.3125 9.179688 -36.847656 10.109375 -35.921875 C 11.046875 -34.992188 11.515625 -33.882812 11.515625 -32.59375 C 11.515625 -31.300781 11.046875 -30.191406 10.109375 -29.265625 C 9.179688 -28.335938 8.070312 -27.875 6.78125 -27.875 C 5.5 -27.875 4.390625 -28.335938 3.453125 -29.265625 C 2.523438 -30.191406 2.0625 -31.300781 2.0625 -32.59375 C 2.0625 -33.882812 2.523438 -34.992188 3.453125 -35.921875 Z M 2.703125 -23.0625 L 2.703125 0 L 10.65625 0 L 10.65625 -23.0625 Z M 2.703125 -23.0625 "/></g></g></g><g fill="#ffffff" fill-opacity="1"><g transform="translate(325.378257, 200.553897)"><g><path d="M 26.03125 -10.421875 L 9.3125 -10.421875 C 9.3125 -8.804688 9.832031 -7.609375 10.875 -6.828125 C 11.925781 -6.054688 13.066406 -5.671875 14.296875 -5.671875 C 15.585938 -5.671875 16.601562 -5.84375 17.34375 -6.1875 C 18.09375 -6.53125 18.953125 -7.207031 19.921875 -8.21875 L 25.671875 -5.34375 C 23.273438 -1.332031 19.285156 0.671875 13.703125 0.671875 C 10.234375 0.671875 7.253906 -0.515625 4.765625 -2.890625 C 2.273438 -5.273438 1.03125 -8.144531 1.03125 -11.5 C 1.03125 -14.863281 2.273438 -17.742188 4.765625 -20.140625 C 7.253906 -22.535156 10.234375 -23.734375 13.703125 -23.734375 C 17.359375 -23.734375 20.332031 -22.675781 22.625 -20.5625 C 24.925781 -18.445312 26.078125 -15.429688 26.078125 -11.515625 C 26.078125 -10.972656 26.0625 -10.609375 26.03125 -10.421875 Z M 9.53125 -14.828125 L 18.296875 -14.828125 C 18.117188 -16.023438 17.644531 -16.945312 16.875 -17.59375 C 16.113281 -18.238281 15.132812 -18.5625 13.9375 -18.5625 C 12.613281 -18.5625 11.5625 -18.21875 10.78125 -17.53125 C 10.007812 -16.84375 9.59375 -15.941406 9.53125 -14.828125 Z M 9.53125 -14.828125 "/></g></g></g><g fill="#a6a6a6" fill-opacity="1"><g transform="translate(334.930735, 164.26156)"><g><path d="M 15.390625 0 L 12.0625 0 L 10.84375 -3.703125 L 4.703125 -3.703125 L 3.5 0 L 0.234375 0 L 5.78125 -16.046875 L 9.859375 -16.046875 Z M 7.625 -12.6875 L 5.5625 -6.359375 L 9.96875 -6.359375 L 7.90625 -12.6875 Z M 7.625 -12.6875 "/></g></g></g><g fill="#a6a6a6" fill-opacity="1"><g transform="translate(350.568008, 164.26156)"><g><path d="M 5.25 0 L 2.078125 0 L 2.078125 -16.046875 L 5.25 -16.046875 Z M 5.25 0 "/></g></g></g></svg>