<svg xmlns="http://www.w3.org/2000/svg" xmlns:xlink="http://www.w3.org/1999/xlink" width="500" zoomAndPan="magnify" viewBox="0 0 375 374.999991" height="500" preserveAspectRatio="xMidYMid meet" version="1.0"><defs><clipPath id="e072ce3774"><path d="M 187.5 0 C 83.945312 0 0 83.945312 0 187.5 C 0 291.054688 83.945312 375 187.5 375 C 291.054688 375 375 291.054688 375 187.5 C 375 83.945312 291.054688 0 187.5 0 Z M 187.5 0 " clip-rule="nonzero" data-index="0"></path></clipPath><clipPath id="74ab87c949"><path d="M 51 107 L 323 107 L 323 270.832031 L 51 270.832031 Z M 51 107 " clip-rule="nonzero" data-index="1"></path></clipPath></defs><rect x="-37.5" width="450" fill="#ffffff" y="-37.499999" height="449.999989" fill-opacity="1"></rect><rect x="-37.5" width="450" fill="#ffffff" y="-37.499999" height="449.999989" fill-opacity="1"></rect><g clip-path="url(#e072ce3774)"><rect x="-37.5" width="450" fill="#000000" y="-37.499999" height="449.999989" fill-opacity="1"></rect></g><g clip-path="url(#74ab87c949)"><path fill="#ffffff" d="M 234.550781 122.890625 C 237.804688 119.273438 241.421875 116.289062 245.128906 113.9375 C 251.636719 109.871094 258.507812 107.703125 265.558594 107.703125 L 265.558594 166.734375 C 260.40625 148.835938 249.285156 133.464844 234.550781 122.890625 Z M 322.332031 270.878906 L 113.230469 270.878906 C 78.875 270.878906 51.121094 243.035156 51.121094 208.773438 C 51.121094 175.957031 76.613281 149.015625 108.890625 146.753906 L 108.890625 107.703125 C 116.121094 107.703125 123.261719 109.78125 129.953125 113.9375 C 133.660156 116.199219 137.277344 119.183594 140.53125 122.617188 C 153.820312 113.304688 169.910156 107.882812 187.359375 107.882812 C 187.359375 145.582031 173.800781 189.425781 129.683594 189.515625 L 186.90625 189.515625 C 185.28125 182.195312 178.589844 176.769531 170.636719 176.679688 L 203.902344 176.679688 C 195.949219 176.679688 189.257812 182.195312 187.632812 189.605469 L 240.96875 189.605469 C 251.636719 189.605469 262.214844 191.6875 272.160156 195.84375 C 282.011719 199.914062 291.054688 205.96875 298.554688 213.472656 C 306.148438 221.066406 312.117188 230.019531 316.183594 239.871094 C 320.253906 249.636719 322.332031 260.210938 322.332031 270.878906 Z M 144.054688 147.839844 C 145.414062 151.367188 149.027344 155.34375 154.089844 158.238281 C 159.152344 161.128906 164.398438 162.304688 168.105469 161.761719 C 166.746094 158.238281 163.132812 154.257812 158.070312 151.367188 C 153.007812 148.472656 147.761719 147.296875 144.054688 147.839844 Z M 220.175781 158.238281 C 215.113281 161.128906 209.871094 162.304688 206.164062 161.761719 C 207.519531 158.238281 211.136719 154.257812 216.199219 151.367188 C 221.261719 148.472656 226.503906 147.296875 230.210938 147.839844 C 228.945312 151.367188 225.238281 155.34375 220.175781 158.238281 Z M 220.175781 158.238281 " fill-opacity="1" fill-rule="nonzero" data-index="2" style="opacity: 1;"></path></g></svg>